HIERARCHY
ROOT hip
{
  OFFSET 0 0 0
  CHANNELS 6 Xposition Yposition Zposition Zrotation Yrotation Xrotation
  JOINT abdomen
  {
    OFFSET 0 20.6881 -0.73152
    CHANNELS 3 Zrotation Xrotation Yrotation
    JOINT chest
    {
      OFFSET 0 11.7043 -0.48768
      CHANNELS 3 Zrotation Xrotation Yrotation
      JOINT neck
      {
        OFFSET 0 22.1894 -2.19456
        CHANNELS 3 Zrotation Xrotation Yrotation
        JOINT head
        {
          OFFSET -0.24384 7.07133 1.2192
          CHANNELS 3 Zrotation Xrotation Yrotation
          JOINT leftEye
          {
            OFFSET 4.14528 8.04674 8.04672
            CHANNELS 3 Zrotation Xrotation Yrotation
            End Site
            {
              OFFSET 1 0 0
            }
          }
          JOINT rightEye
          {
            OFFSET -3.6576 8.04674 8.04672
            CHANNELS 3 Zrotation Xrotation Yrotation
            End Site
            {
              OFFSET 1 0 0
            }
          }
        }
      }
      JOINT rCollar
      {
        OFFSET -2.68224 19.2634 -4.8768
        CHANNELS 3 Zrotation Xrotation Yrotation
        JOINT rShldr
        {
          OFFSET -8.77824 -1.95073 1.46304
          CHANNELS 3 Zrotation Xrotation Yrotation
          JOINT rForeArm
          {
            OFFSET -28.1742 -1.7115 0.48768
            CHANNELS 3 Zrotation Xrotation Yrotation
            JOINT rHand
            {
              OFFSET -22.5879 0.773209 7.07136
              CHANNELS 3 Zrotation Xrotation Yrotation
              JOINT rThumb1
              {
                OFFSET -1.2192 -0.487915 3.41376
                CHANNELS 3 Zrotation Xrotation Yrotation
                JOINT rThumb2
                {
                  OFFSET -3.37035 -0.52449 3.41376
                  CHANNELS 3 Zrotation Xrotation Yrotation
                  End Site
                  {
                    OFFSET -1.78271 -1.18214 1.43049
                  }
                }
              }
              JOINT rIndex1
              {
                OFFSET -7.75947 0.938293 5.60832
                CHANNELS 3 Zrotation Xrotation Yrotation
                JOINT rIndex2
                {
                  OFFSET -2.54057 -0.884171 1.56538
                  CHANNELS 3 Zrotation Xrotation Yrotation
                  End Site
                  {
                    OFFSET -1.62519 -0.234802 1.16502
                  }
                }
              }
              JOINT rMid1
              {
                OFFSET -8.24714 1.18213 3.41376
                CHANNELS 3 Zrotation Xrotation Yrotation
                JOINT rMid2
                {
                  OFFSET -3.10165 -0.590103 1.0647
                  CHANNELS 3 Zrotation Xrotation Yrotation
                  End Site
                  {
                    OFFSET -2.48547 -0.328903 0.83742
                  }
                }
              }
              JOINT rRing1
              {
                OFFSET -8.82822 0.546677 1.51678
                CHANNELS 3 Zrotation Xrotation Yrotation
                JOINT rRing2
                {
                  OFFSET -2.60934 -0.819778 -0.0198488
                  CHANNELS 3 Zrotation Xrotation Yrotation
                  End Site
                  {
                    OFFSET -2.33842 -0.294052 0.168128
                  }
                }
              }
              JOINT rPinky1
              {
                OFFSET -8.27202 -0.0477905 -0.4584
                CHANNELS 3 Zrotation Xrotation Yrotation
                JOINT rPinky2
                {
                  OFFSET -1.82734 -0.647385 -0.700984
                  CHANNELS 3 Zrotation Xrotation Yrotation
                  End Site
                  {
                    OFFSET -1.69225 -0.51767 -0.607171
                  }
                }
              }
            }
          }
        }
      }
      JOINT lCollar
      {
        OFFSET 2.68224 19.2634 -4.8768
        CHANNELS 3 Zrotation Xrotation Yrotation
        JOINT lShldr
        {
          OFFSET 8.77824 -1.95073 1.46304
          CHANNELS 3 Zrotation Xrotation Yrotation
          JOINT lForeArm
          {
            OFFSET 28.1742 -1.7115 0.48768
            CHANNELS 3 Zrotation Xrotation Yrotation
            JOINT lHand
            {
              OFFSET 22.5879 0.773209 7.07136
              CHANNELS 3 Zrotation Xrotation Yrotation
              JOINT lThumb1
              {
                OFFSET 1.2192 -0.487915 3.41376
                CHANNELS 3 Zrotation Xrotation Yrotation
                JOINT lThumb2
                {
                  OFFSET 3.37035 -0.52449 3.41376
                  CHANNELS 3 Zrotation Xrotation Yrotation
                  End Site
                  {
                    OFFSET 1.78271 -1.18214 1.43049
                  }
                }
              }
              JOINT lIndex1
              {
                OFFSET 7.75947 0.938293 5.60832
                CHANNELS 3 Zrotation Xrotation Yrotation
                JOINT lIndex2
                {
                  OFFSET 2.54057 -0.884171 1.56538
                  CHANNELS 3 Zrotation Xrotation Yrotation
                  End Site
                  {
                    OFFSET 1.62519 -0.234802 1.16502
                  }
                }
              }
              JOINT lMid1
              {
                OFFSET 8.24714 1.18213 3.41376
                CHANNELS 3 Zrotation Xrotation Yrotation
                JOINT lMid2
                {
                  OFFSET 3.10165 -0.590103 1.0647
                  CHANNELS 3 Zrotation Xrotation Yrotation
                  End Site
                  {
                    OFFSET 2.48547 -0.328903 0.83742
                  }
                }
              }
              JOINT lRing1
              {
                OFFSET 8.82822 0.546677 1.51678
                CHANNELS 3 Zrotation Xrotation Yrotation
                JOINT lRing2
                {
                  OFFSET 2.60934 -0.819778 -0.0198488
                  CHANNELS 3 Zrotation Xrotation Yrotation
                  End Site
                  {
                    OFFSET 2.33842 -0.294052 0.168128
                  }
                }
              }
              JOINT lPinky1
              {
                OFFSET 8.27202 -0.0477905 -0.4584
                CHANNELS 3 Zrotation Xrotation Yrotation
                JOINT lPinky2
                {
                  OFFSET 1.82734 -0.647385 -0.700984
                  CHANNELS 3 Zrotation Xrotation Yrotation
                  End Site
                  {
                    OFFSET 1.69225 -0.51767 -0.607171
                  }
                }
              }
            }
          }
        }
      }
    }
  }
  JOINT rButtock
  {
    OFFSET -8.77824 4.35084 1.2192
    CHANNELS 3 Zrotation Xrotation Yrotation
    JOINT rThigh
    {
      OFFSET 0 -1.70687 -2.19456
      CHANNELS 3 Zrotation Xrotation Yrotation
      JOINT rShin
      {
        OFFSET 0 -36.8199 0.73152
        CHANNELS 3 Zrotation Xrotation Yrotation
        JOINT rFoot
        {
          OFFSET 0.73152 -45.1104 -5.12064
          CHANNELS 3 Zrotation Xrotation Yrotation
          End Site
          {
            OFFSET -1.1221 -3.69964 12.103
          }
        }
      }
    }
  }
  JOINT lButtock
  {
    OFFSET 8.77824 4.35084 1.2192
    CHANNELS 3 Zrotation Xrotation Yrotation
    JOINT lThigh
    {
      OFFSET 0 -1.70687 -2.19456
      CHANNELS 3 Zrotation Xrotation Yrotation
      JOINT lShin
      {
        OFFSET 0 -36.8199 0.73152
        CHANNELS 3 Zrotation Xrotation Yrotation
        JOINT lFoot
        {
          OFFSET -0.73152 -45.1104 -5.12064
          CHANNELS 3 Zrotation Xrotation Yrotation
          End Site
          {
            OFFSET 1.1221 -3.69964 12.103
          }
        }
      }
    }
  }
}
MOTION
Frames:	4
Frame Time:	0.00833333
94.6283 85.7196 129.714 1.154 35.3838 -3.5066 1.68563 5.62535 2.97774 2.95998 -6.38042 0.987956 1.69866 2.17436 6.67843 -10.3088 -14.0724 11.7604 -0.0 0.0 0.0 -0.0 0.0 0.0 -5.94197e-14 1.68168e-13 -4.45129e-13 68.1882 34.0527 21.7679 -28.4266 -35.0443 75.4185 -0.0296428 -4.90864 -0.691574 -4.6562e-10 -2.80598e-09 1.59387e-09 -8.10876e-10 -4.85882e-09 2.75414e-09 -4.65625e-10 -2.80599e-09 1.59386e-09 7.73091 5.47488 0.417314 -4.65634e-10 -2.80601e-09 1.59388e-09 2.90554 0.965183 0.102902 -4.65617e-10 -2.80598e-09 1.59387e-09 10.2786 0.731801 0.0259123 -4.65627e-10 -2.80598e-09 1.59388e-09 2.22167 -0.733487 -0.20892 -5.95569e-14 1.68175e-13 -4.45377e-13 -77.1361 41.6598 -10.6164 24.9067 -48.1341 -100.273 0.250397 -14.105 2.02379 -1.1762e-10 2.89782e-09 -1.38682e-09 -1.89669e-10 5.00459e-09 -2.40029e-09 -1.17624e-10 2.89782e-09 -1.38681e-09 -7.73091 5.47488 -0.417314 -1.17624e-10 2.89782e-09 -1.38682e-09 -2.90554 0.965183 -0.102902 -1.17622e-10 2.89783e-09 -1.38683e-09 -10.2786 0.731801 -0.0259123 -1.17622e-10 2.89783e-09 -1.38683e-09 -2.22167 -0.733487 0.20892 -2.03217e-16 0.0 -3.88251e-19 -1.95841 -13.3316 -0.881946 -0.318699 38.9885 0.674319 -3.16094 -6.33113 -12.2972 2.03217e-16 0.0 3.88251e-19 -0.592841 -14.7298 0.258796 0.278585 37.4397 -0.575203 -0.704789 -6.20035 -5.98295
94.9613 86.2103 130.243 1.0738 35.0694 -2.8518 1.93257 4.88644 3.04651 2.93288 -6.25452 1.00226 2.08553 2.43255 6.97055 -10.994 -14.3327 12.1632 -0.0 0.0 0.0 -0.0 0.0 0.0 -4.77007e-14 1.1388e-13 -3.97413e-13 68.6807 34.2802 21.1254 -28.413 -35.376 76.0801 -0.0343204 -5.42254 -0.764185 -3.82634e-10 -1.9263e-09 1.09291e-09 -6.65106e-10 -3.33508e-09 1.88846e-09 -3.82638e-10 -1.9263e-09 1.0929e-09 7.73091 5.47488 0.417314 -3.82652e-10 -1.92633e-09 1.09292e-09 2.90554 0.965183 0.102902 -3.82631e-10 -1.92629e-09 1.09291e-09 10.2786 0.731801 0.0259123 -3.82639e-10 -1.92629e-09 1.09292e-09 2.22167 -0.733487 -0.20892 -4.78313e-14 1.13886e-13 -3.97631e-13 -78.1531 41.151 -8.83357 24.7874 -48.258 -100.67 0.250514 -14.1026 2.02348 -5.50514e-11 2.01008e-09 -1.00843e-09 -8.46783e-11 3.47183e-09 -1.74579e-09 -5.50532e-11 2.01008e-09 -1.00841e-09 -7.73091 5.47488 -0.417314 -5.50539e-11 2.01009e-09 -1.00842e-09 -2.90554 0.965183 -0.102902 -5.50526e-11 2.01009e-09 -1.00843e-09 -10.2786 0.731801 -0.0259123 -5.50531e-11 2.01009e-09 -1.00844e-09 -2.22167 -0.733487 0.20892 -2.03217e-16 0.0 -3.88251e-19 -1.98402 -12.9734 -0.853596 -0.297345 37.6079 0.628731 -2.82557 -5.35093 -11.749 2.03217e-16 0.0 3.88251e-19 -0.729178 -14.162 0.0305328 0.250159 35.8791 -0.539726 -0.529141 -5.37753 -5.59571
95.2063 86.5572 130.743 0.6608 34.7326 -2.2215 2.29941 4.17539 3.1001 2.80776 -6.20206 1.00949 2.59123 2.79455 7.29341 -11.6866 -14.6487 12.5929 -0.0 0.0 0.0 -0.0 0.0 0.0 -5.02113e-14 6.82937e-14 -3.28094e-13 69.1412 34.727 20.309 -28.4029 -35.5728 76.4741 -0.0473637 -6.40901 -0.904158 -1.07294e-10 -4.27632e-10 3.51755e-10 -1.86334e-10 -7.42461e-10 6.0905e-10 -1.07297e-10 -4.27644e-10 3.5175e-10 7.73091 5.47488 0.417314 -1.07316e-10 -4.27669e-10 3.51778e-10 2.90554 0.965183 0.102902 -1.07293e-10 -4.27628e-10 3.51759e-10 10.2786 0.731801 0.0259123 -1.07297e-10 -4.27627e-10 3.5177e-10 2.22167 -0.733487 -0.20892 -5.03242e-14 6.82954e-14 -3.28262e-13 -79.3262 40.7038 -6.68888 24.7849 -48.2176 -100.665 0.243989 -13.9229 1.99663 -7.73446e-11 9.64575e-10 -4.32421e-10 -1.28585e-10 1.66828e-09 -7.49797e-10 -7.73435e-11 9.64581e-10 -4.32411e-10 -7.73091 5.47488 -0.417314 -7.73443e-11 9.64586e-10 -4.32415e-10 -2.90554 0.965183 -0.102902 -7.73445e-11 9.64586e-10 -4.32422e-10 -10.2786 0.731801 -0.0259123 -7.73462e-11 9.64587e-10 -4.32429e-10 -2.22167 -0.733487 0.20892 -2.03217e-16 0.0 -3.88251e-19 -1.91022 -12.7995 -0.886128 -0.279451 36.4764 0.59374 -2.56188 -4.65274 -11.1675 2.03217e-16 0.0 3.88251e-19 -0.727662 -13.848 -0.196042 0.229048 34.6782 -0.5128 -0.385342 -4.74824 -5.19112
95.4344 86.7577 131.226 0.3467 34.3149 -1.6211 2.65927 3.54244 3.16278 2.67039 -6.18929 1.01974 3.11456 3.18675 7.62319 -12.3097 -14.9609 13.0404 -0.0 0.0 0.0 -0.0 0.0 0.0 -5.77581e-14 3.19941e-14 -2.84716e-13 69.5894 35.2008 19.3906 -28.4078 -35.5808 76.4585 -0.0658813 -7.41641 -1.04798 2.44924e-10 1.04496e-09 -3.28121e-10 4.24856e-10 1.80347e-09 -5.63884e-10 2.44922e-10 1.04494e-09 -3.28125e-10 7.73091 5.47488 0.417314 2.44898e-10 1.04492e-09 -3.28093e-10 2.90554 0.965183 0.102902 2.44924e-10 1.04496e-09 -3.28118e-10 10.2786 0.731801 0.0259123 2.44922e-10 1.04496e-09 -3.28107e-10 2.22167 -0.733487 -0.20892 -5.78464e-14 3.19922e-14 -2.84837e-13 -80.606 40.2101 -4.43134 24.9303 -48.0082 -100.16 0.234361 -13.6543 1.95656 -6.44347e-11 -1.48658e-10 1.83035e-10 -1.12074e-10 -2.53574e-10 3.14883e-10 -6.44307e-11 -1.48651e-10 1.83042e-10 -7.73091 5.47488 -0.417314 -6.44318e-11 -1.48645e-10 1.83043e-10 -2.90554 0.965183 -0.102902 -6.44335e-11 -1.48645e-10 1.83034e-10 -10.2786 0.731801 -0.0259123 -6.44358e-11 -1.48644e-10 1.83028e-10 -2.22167 -0.733487 0.20892 -2.03217e-16 0.0 -3.88251e-19 -1.79588 -12.7369 -0.893562 -0.264746 35.5512 0.567108 -2.364 -4.18895 -10.616 2.03217e-16 0.0 3.88251e-19 -0.660425 -13.6709 -0.396821 0.212644 33.7202 -0.49171 -0.277615 -4.30196 -4.83516
